HIERARCHY
ROOT Hips
{
	OFFSET 0.000000 0.000000 0.000000
	CHANNELS 6 Xposition Yposition Zposition Xrotation Yrotation Zrotation
	JOINT LeftUpLeg_virtual
	{
		OFFSET 0.000000 0.000000 0.000000
		CHANNELS 3 Xrotation Yrotation Zrotation
		JOINT LeftUpLeg
		{
			OFFSET 10.205400 -3.823500 0.155100
			CHANNELS 3 Xrotation Yrotation Zrotation
			JOINT LeftLeg
			{
				OFFSET 0.708757 -12.982077 0.567790
				CHANNELS 3 Xrotation Yrotation Zrotation
				JOINT LeftFoot
				{
					OFFSET -0.708756 -10.717838 -2.184338
					CHANNELS 3 Xrotation Yrotation Zrotation
					JOINT LeftToeBase
					{
						OFFSET 0.108149 -7.191104 7.560241
						CHANNELS 3 Xrotation Yrotation Zrotation
						JOINT LeftToe_End
						{
							OFFSET 0.070230 0.081724 4.490308
							CHANNELS 3 Xrotation Yrotation Zrotation
							End Site
							{
								OFFSET 0 0 0
							}
						}
					}
				}
			}
		}
	}
	JOINT RightUpLeg_virtual
	{
		OFFSET 0.000000 0.000000 0.000000
		CHANNELS 3 Xrotation Yrotation Zrotation
		JOINT RightUpLeg
		{
			OFFSET -10.205400 -3.823500 0.005500
			CHANNELS 3 Xrotation Yrotation Zrotation
			JOINT RightLeg
			{
				OFFSET -0.708756 -12.982134 0.610632
				CHANNELS 3 Xrotation Yrotation Zrotation
				JOINT RightFoot
				{
					OFFSET 0.708754 -10.717769 -1.945823
					CHANNELS 3 Xrotation Yrotation Zrotation
					JOINT RightToeBase
					{
						OFFSET -0.108140 -7.191069 7.372968
						CHANNELS 3 Xrotation Yrotation Zrotation
						JOINT RightToe_End
						{
							OFFSET -0.070227 0.081735 4.479403
							CHANNELS 3 Xrotation Yrotation Zrotation
							End Site
							{
								OFFSET 0 0 0
							}
						}
					}
				}
			}
		}
	}
	JOINT Spine_virtual
	{
		OFFSET 0.000000 0.000000 0.000000
		CHANNELS 3 Xrotation Yrotation Zrotation
		JOINT Spine
		{
			OFFSET 0.000000 6.876099 0.125700
			CHANNELS 3 Xrotation Yrotation Zrotation
			JOINT Spine1
			{
				OFFSET 0.000000 5.730043 0.104720
				CHANNELS 3 Xrotation Yrotation Zrotation
				JOINT Spine1_split
				{
					OFFSET 0.000000 5.730043 0.104720
					CHANNELS 3 Xrotation Yrotation Zrotation
					JOINT Spine2
					{
						OFFSET 0.000000 5.730043 0.104720
						CHANNELS 3 Xrotation Yrotation Zrotation
						JOINT Neck_virtual
						{
							OFFSET 0.000000 0.000000 0.000000
							CHANNELS 3 Xrotation Yrotation Zrotation
							JOINT Neck
							{
								OFFSET 0.000000 10.314075 0.188496
								CHANNELS 3 Xrotation Yrotation Zrotation
								JOINT Head
								{
									OFFSET 0.000000 7.643700 -2.377400
									CHANNELS 3 Xrotation Yrotation Zrotation
									JOINT HeadTop_End
									{
										OFFSET 0.000000 43.788605 -13.619600
										CHANNELS 3 Xrotation Yrotation Zrotation
										End Site
										{
											OFFSET 0 0 0
										}
									}
								}
							}
						}
						JOINT LeftShoulder_virtual
						{
							OFFSET 0.000000 0.000000 0.000000
							CHANNELS 3 Xrotation Yrotation Zrotation
							JOINT LeftShoulder
							{
								OFFSET 2.196100 4.412489 0.087492
								CHANNELS 3 Xrotation Yrotation Zrotation
								JOINT LeftShoulder_split
								{
									OFFSET 2.196100 4.412489 0.087492
									CHANNELS 3 Xrotation Yrotation Zrotation
									JOINT LeftArm
									{
										OFFSET 8.771219 -2.981674 -0.026999
										CHANNELS 3 Xrotation Yrotation Zrotation
										JOINT LeftForeArm
										{
											OFFSET 8.512804 0.000000 -0.000000
											CHANNELS 3 Xrotation Yrotation Zrotation
											JOINT LeftHand
											{
												OFFSET 18.484802 0.000000 -0.000000
												CHANNELS 3 Xrotation Yrotation Zrotation
												End Site
												{
													OFFSET 0 0 0
												}
											}
										}
									}
								}
							}
						}
						JOINT RightShoulder_virtual
						{
							OFFSET 0.000000 0.000000 0.000000
							CHANNELS 3 Xrotation Yrotation Zrotation
							JOINT RightShoulder
							{
								OFFSET -2.196100 4.412496 0.070690
								CHANNELS 3 Xrotation Yrotation Zrotation
								JOINT RightShoulder_split
								{
									OFFSET -2.196100 4.412496 0.070690
									CHANNELS 3 Xrotation Yrotation Zrotation
									JOINT RightArm
									{
										OFFSET -8.771282 -2.981682 -0.094208
										CHANNELS 3 Xrotation Yrotation Zrotation
										JOINT RightForeArm
										{
											OFFSET -8.494598 0.000000 0.000000
											CHANNELS 3 Xrotation Yrotation Zrotation
											JOINT RightHand
											{
												OFFSET -18.483803 0.000000 0.000001
												CHANNELS 3 Xrotation Yrotation Zrotation
												End Site
												{
													OFFSET 0 0 0
												}
											}
										}
									}
								}
							}
						}
					}
				}
			}
		}
	}
}
MOTION
Frames: 6
Frame Time: 0.03333333
44.749138 37.882317 80.270645 0.000000 0.000000 0.000000 -127.889937 -62.643278 162.577996 -46.264037 4.505002 19.816431 85.134449 -1.386299 -5.934860 -6.879286 -10.446966 -1.780098 -1.063027 0.100759 -2.937030 0.000000 0.000000 0.000000 -114.887306 -72.211827 172.368430 -57.334152 6.621462 -49.273842 69.227826 16.164908 -4.355111 -14.156053 -4.858149 20.660439 6.320806 0.088195 -3.704300 0.000000 0.000000 0.000000 -124.680090 -64.726684 168.076899 14.940190 4.418733 1.006607 -2.708328 1.849596 6.997154 0.227369 -0.237428 1.670480 0.000000 0.000000 0.000000 1.353747 1.826536 5.425524 18.016350 3.890946 10.864492 19.905760 36.413108 -22.219908 0.000000 0.000000 0.000000 0.346045 1.790613 6.346054 2.125421 -6.511467 6.304259 4.352259 0.661183 1.493925 -5.323590 10.328615 1.349746 2.292812 -37.866849 -1.302603 0.000000 0.000000 0.000000 -1.531294 1.942658 6.098156 3.767760 2.574814 17.378175 -0.382394 1.158027 1.161478 -14.742624 23.044100 13.123280 1.631219 19.557803 -3.107391 0.000000 0.000000 0.000000 
47.574894 35.432129 84.607758 0.000000 0.000000 0.000000 -125.436083 -59.392941 164.712184 -45.333769 4.245729 15.735007 83.728892 1.224648 -3.356540 -2.382060 -7.650198 -0.529723 -0.093075 0.214996 -2.868911 0.000000 0.000000 0.000000 -114.145254 -66.871964 172.047165 -59.226688 6.586007 -45.038384 63.374033 14.478852 -3.824085 -5.208693 -4.561317 19.452611 3.016475 -0.218916 -2.694055 0.000000 0.000000 0.000000 -124.013942 -60.600806 167.434697 16.081158 4.764751 0.396527 -1.827610 2.695789 6.222514 0.256677 0.208943 2.497405 0.000000 0.000000 0.000000 1.282981 2.645000 4.439769 18.043649 3.946445 9.078297 18.716084 34.653176 -21.165931 0.000000 0.000000 0.000000 0.617927 2.566544 5.237825 2.329917 -6.313001 6.067967 3.213742 2.199798 0.966762 -7.255222 15.121660 2.686436 2.962160 -38.670721 -0.619961 0.000000 0.000000 0.000000 -1.261054 2.871766 5.164379 3.467187 5.116916 18.606048 -0.813605 -0.781318 1.061887 -15.845340 22.474903 16.240720 2.209194 26.898480 -2.537841 0.000000 0.000000 0.000000 
50.254826 32.095966 89.419785 0.000000 0.000000 0.000000 -122.081025 -53.291171 168.164749 -43.098572 5.363160 13.448524 80.472572 3.779971 -1.031790 -0.466052 -3.063789 -0.233249 0.427569 0.411341 -2.747061 0.000000 0.000000 0.000000 -114.269925 -58.584377 170.943925 -63.497591 9.734991 -38.986498 56.938564 12.138972 -4.102770 3.984170 -3.194154 19.722970 0.568219 -0.681121 -1.663828 0.000000 0.000000 0.000000 -121.603158 -54.305263 169.249438 17.406180 4.550986 0.156349 -0.831607 3.427930 5.926606 0.524764 0.566859 2.935073 0.000000 0.000000 0.000000 1.319045 3.445317 4.074882 17.592317 3.837038 7.466198 16.588165 32.582598 -19.705149 0.000000 0.000000 0.000000 0.975358 3.295623 4.853385 2.437828 -5.020551 4.850220 2.811593 4.091545 -0.540810 -9.518657 21.095027 3.225668 2.749045 -45.882971 -0.660037 0.000000 0.000000 0.000000 -1.020097 3.699522 4.896760 3.227586 6.870142 19.557881 -1.188768 -1.659712 1.252813 -18.101236 20.452523 20.118139 2.152326 37.370868 -1.390605 0.000000 0.000000 0.000000 
52.765137 27.939930 94.458336 0.000000 0.000000 0.000000 -119.187115 -44.044714 171.324230 -39.882277 8.627358 13.413641 75.306387 4.797176 0.574969 -2.094634 1.668774 -1.392981 0.403375 0.563893 -2.170637 0.000000 0.000000 0.000000 -114.340932 -47.886873 169.868335 -71.451989 14.767240 -30.893560 51.266160 10.155468 -5.044122 11.694568 -0.450236 21.229533 0.364888 -1.088599 -1.114346 0.000000 0.000000 0.000000 -118.753002 -45.863897 171.905124 18.750917 3.576512 0.121691 0.219766 3.883601 6.195784 0.822777 -0.581082 2.575994 0.000000 0.000000 0.000000 1.572183 4.084429 4.399962 17.064362 3.483768 6.243636 13.811901 29.894683 -17.923101 0.000000 0.000000 0.000000 1.417700 3.896371 5.286678 2.647882 -3.601630 2.573347 3.353958 5.390655 -2.239598 -10.849773 26.481186 2.310794 2.094025 -57.379169 -1.274698 0.000000 0.000000 0.000000 -0.766103 4.319242 5.413712 3.174759 7.406178 20.221238 -1.535673 -1.331656 1.397330 -20.390007 17.503289 24.363003 0.780250 48.630243 0.703401 0.000000 0.000000 0.000000 
55.174042 23.497787 99.404640 0.000000 0.000000 0.000000 -117.206934 -32.590159 173.358097 -37.808731 14.213893 16.303146 70.043501 3.372169 0.389534 -6.568145 5.506190 -3.553412 0.452546 0.735673 -1.148688 0.000000 0.000000 0.000000 -113.815506 -35.910532 169.629715 -83.626446 19.017297 -20.675539 48.539163 9.117259 -5.993944 17.353665 3.275860 23.035991 2.000645 -1.302281 -0.979624 0.000000 0.000000 0.000000 -116.156779 -35.486439 174.509366 19.954355 1.991919 0.131601 1.236922 4.042331 6.785757 1.220274 -2.052730 1.951958 0.000000 0.000000 0.000000 1.994986 4.489679 5.126147 16.907433 2.770141 5.605488 11.562691 26.414732 -16.208401 0.000000 0.000000 0.000000 1.921608 4.263319 6.160206 3.133269 -2.724416 -0.552867 4.560800 4.945217 -3.110641 -10.433303 28.604532 0.002314 2.393198 -67.317347 -1.431801 0.000000 0.000000 0.000000 -0.301531 4.700043 6.342123 3.302930 6.350562 21.010357 -1.895474 -0.471518 1.213925 -21.525619 14.751588 28.335760 -2.299195 58.198949 3.828105 0.000000 0.000000 0.000000 
57.613678 19.420734 104.154297 0.000000 0.000000 0.000000 -115.894568 -20.413753 174.142407 -37.192637 20.775624 22.667267 67.554280 0.129277 -2.316024 -12.374561 8.197255 -4.982107 0.985670 0.914982 -0.016162 0.000000 0.000000 0.000000 -112.344741 -24.313249 169.851068 -97.043328 19.751794 -9.796501 49.436844 8.739195 -6.391555 20.933097 7.067916 23.962235 4.319116 -1.357887 -0.950924 0.000000 0.000000 0.000000 -113.897366 -24.699725 176.701816 20.702435 0.005433 0.043627 2.122096 3.958130 7.243716 1.251816 -4.205489 1.125906 0.000000 0.000000 0.000000 2.513779 4.658037 5.757079 17.312356 1.865120 5.617347 10.689656 22.151077 -14.599417 0.000000 0.000000 0.000000 2.490463 4.429375 6.822588 3.861808 -3.097567 -4.005660 5.419756 3.209183 -2.644039 -7.523009 26.762020 -3.262070 4.678715 -71.325179 0.234499 0.000000 0.000000 0.000000 0.350964 4.836274 7.122565 3.476828 3.569214 22.114793 -1.875899 0.901822 0.376404 -21.125270 13.147139 31.440351 -6.627990 64.855529 7.530205 0.000000 0.000000 0.000000 
